<?xml version="1.0" encoding="UTF-8"?><svg xmlns="http://www.w3.org/2000/svg" width="4096" height="6144" viewBox="0 0 4096 6144"><defs><linearGradient id="hair" x1="0" y1="0" x2="1" y2="1"><stop offset="0" stop-color="#ffffff"/><stop offset="0.55" stop-color="#eeeaff"/><stop offset="1" stop-color="#b9b3d5"/></linearGradient><linearGradient id="hair2" x1="0" y1="0" x2="0.9" y2="1"><stop offset="0" stop-color="#fffaff"/><stop offset="0.7" stop-color="#dcd7f0"/><stop offset="1" stop-color="#aaa4c8"/></linearGradient><linearGradient id="skin" x1="0" y1="0" x2="0.7" y2="1"><stop offset="0" stop-color="#fff1ef"/><stop offset="0.65" stop-color="#f3cfd0"/><stop offset="1" stop-color="#d898a9"/></linearGradient><linearGradient id="black" x1="0" y1="0" x2="1" y2="1"><stop offset="0" stop-color="#55566e"/><stop offset="0.45" stop-color="#292a3d"/><stop offset="1" stop-color="#181927"/></linearGradient><linearGradient id="lav" x1="0" y1="0" x2="0.7" y2="1"><stop offset="0" stop-color="#eee5ff" stop-opacity="0.9"/><stop offset="0.55" stop-color="#baa0e4" stop-opacity="0.92"/><stop offset="1" stop-color="#765caa" stop-opacity="0.95"/></linearGradient><linearGradient id="gem" x1="0" y1="0" x2="1" y2="1"><stop offset="0" stop-color="#f3d5ff"/><stop offset="0.35" stop-color="#a98aff"/><stop offset="0.8" stop-color="#6332ad"/><stop offset="1" stop-color="#321b70"/></linearGradient><linearGradient id="silver" x1="0" y1="0" x2="1" y2="1"><stop offset="0" stop-color="#ffffff"/><stop offset="0.45" stop-color="#cfc9df"/><stop offset="1" stop-color="#8d88a8"/></linearGradient><pattern id="stars" width="220" height="220" patternUnits="userSpaceOnUse"><path d="M110 26 L128 92 L194 110 L128 128 L110 194 L92 128 L26 110 L92 92 Z" fill="#e8ddff" opacity="0.72"/></pattern></defs><path d="M1760 1810 C1850 1730 1950 1700 2048 1700 C2146 1700 2246 1730 2336 1810 L2440 2860 L2320 3030 L1776 3030 L1656 2860 Z" fill="#fffaff" stroke="#aaa4c2" stroke-width="22"/><path d="M1860 1790 L2048 2050 L2236 1790 L2200 2930 L1896 2930 Z" fill="#faf6ff" stroke="#c9c0de" stroke-width="18"/><path d="M2048 2010 L2048 2890" stroke="#9f97b9" stroke-width="18"/><g fill="#b3a7c8"><circle cx="2048" cy="2190" r="22"/><circle cx="2048" cy="2390" r="22"/><circle cx="2048" cy="2590" r="22"/><circle cx="2048" cy="2790" r="22"/></g><path d="M1860 1810 C1900 1890 1960 1960 2048 2030 C2136 1960 2196 1890 2236 1810" fill="none" stroke="#b6abc9" stroke-width="24"/><path d="M1875 2110 L1875 2860 M1940 2110 L1940 2860 M2156 2110 L2156 2860 M2221 2110 L2221 2860" stroke="#e2dcef" stroke-width="18"/></svg>