<?xml version="1.0" encoding="UTF-8"?><svg xmlns="http://www.w3.org/2000/svg" width="4096" height="6144" viewBox="0 0 4096 6144"><defs><linearGradient id="hair" x1="0" y1="0" x2="1" y2="1"><stop offset="0" stop-color="#ffffff"/><stop offset="0.55" stop-color="#eeeaff"/><stop offset="1" stop-color="#b9b3d5"/></linearGradient><linearGradient id="hair2" x1="0" y1="0" x2="0.9" y2="1"><stop offset="0" stop-color="#fffaff"/><stop offset="0.7" stop-color="#dcd7f0"/><stop offset="1" stop-color="#aaa4c8"/></linearGradient><linearGradient id="skin" x1="0" y1="0" x2="0.7" y2="1"><stop offset="0" stop-color="#fff1ef"/><stop offset="0.65" stop-color="#f3cfd0"/><stop offset="1" stop-color="#d898a9"/></linearGradient><linearGradient id="black" x1="0" y1="0" x2="1" y2="1"><stop offset="0" stop-color="#55566e"/><stop offset="0.45" stop-color="#292a3d"/><stop offset="1" stop-color="#181927"/></linearGradient><linearGradient id="lav" x1="0" y1="0" x2="0.7" y2="1"><stop offset="0" stop-color="#eee5ff" stop-opacity="0.9"/><stop offset="0.55" stop-color="#baa0e4" stop-opacity="0.92"/><stop offset="1" stop-color="#765caa" stop-opacity="0.95"/></linearGradient><linearGradient id="gem" x1="0" y1="0" x2="1" y2="1"><stop offset="0" stop-color="#f3d5ff"/><stop offset="0.35" stop-color="#a98aff"/><stop offset="0.8" stop-color="#6332ad"/><stop offset="1" stop-color="#321b70"/></linearGradient><linearGradient id="silver" x1="0" y1="0" x2="1" y2="1"><stop offset="0" stop-color="#ffffff"/><stop offset="0.45" stop-color="#cfc9df"/><stop offset="1" stop-color="#8d88a8"/></linearGradient><pattern id="stars" width="220" height="220" patternUnits="userSpaceOnUse"><path d="M110 26 L128 92 L194 110 L128 128 L110 194 L92 128 L26 110 L92 92 Z" fill="#e8ddff" opacity="0.72"/></pattern></defs><ellipse cx="2048" cy="1250" rx="520" ry="650" fill="url(#skin)" stroke="#c9859a" stroke-width="24"/><path d="M1580 1260 C1510 1170 1510 1020 1580 950 C1640 930 1680 1010 1680 1120 C1680 1240 1630 1310 1580 1260 Z" fill="url(#skin)" stroke="#c9859a" stroke-width="20"/><path d="M2516 1260 C2586 1170 2586 1020 2516 950 C2456 930 2416 1010 2416 1120 C2416 1240 2466 1310 2516 1260 Z" fill="url(#skin)" stroke="#c9859a" stroke-width="20"/><path d="M2048 1430 C2010 1510 2010 1570 2048 1600 C2086 1570 2086 1510 2048 1430" fill="none" stroke="#c9859a" stroke-width="18"/><ellipse cx="1840" cy="1470" rx="110" ry="48" fill="#e89baa" opacity="0.35"/><ellipse cx="2256" cy="1470" rx="110" ry="48" fill="#e89baa" opacity="0.35"/></svg>